<?xml version="1.0" encoding="utf-8"?>
<!-- Generator: Adobe Illustrator 19.0.0, SVG Export Plug-In . SVG Version: 6.00 Build 0)  -->
<svg version="1.1" id="YouTube_Logo" xmlns="http://www.w3.org/2000/svg" xmlns:xlink="http://www.w3.org/1999/xlink" x="0px"
	 y="0px" viewBox="0 0 773.3 481.1" style="enable-background:new 0 0 773.3 481.1;" xml:space="preserve">
<style type="text/css">
	.st0{fill:#DFDFDF;}
</style>
<g id="You">
	<path id="u_2_" class="st0" d="M323.3,251.3h-19v-11c-7.2,8.3-13.3,12.4-20,12.4c-5.8,0-9.9-2.8-11.9-7.7c-1.2-3-2.1-7.8-2.1-14.7
		v-80h19v75c0,4.2,0,6,0,7c0.4,2.8,1.6,3.8,4.1,3.8c3.6,0,6.9-3.2,10.9-8.8v-77h19V251.3z"/>
	<path id="o_2_" class="st0" d="M256.3,183.3c0-10.8-2.2-18.9-6-24c-5.1-6.9-13-9.7-21-9.7c-9.1,0-15.9,2.8-21,9.7
		c-3.9,5.1-6,13.3-6,24.1l0,35.9c0,10.7,1.9,18.1,5.8,23.2c5.1,6.9,13.2,10.5,21.2,10.5s16.3-3.6,21.4-10.5
		c3.8-5.1,5.6-12.5,5.6-23.2V183.3z M237.3,221.3c1,10-2.1,15-8,15s-9-5-8-15v-40c-1-10,2.1-14.7,8-14.7c5.9,0,9,4.7,8,14.7
		L237.3,221.3z"/>
	<path id="y_2_" class="st0" d="M181.3,196.3v55h-20v-55c0,0-20.7-67.4-25-80h21l14,52.7l14-52.7h21L181.3,196.3z"/>
</g>
<g id="Tube">
	<path class="st0" d="M518.7,166.4c-3,0-6.4,1.6-9.4,4.6l0,60.6c3,3,6.5,4.6,9.4,4.6c5.2,0,7.6-3.8,7.6-13.8v-43
		C526.3,169.3,523.9,166.4,518.7,166.4z"/>
	<path class="st0" d="M593.3,178.4c0-9.2-2.4-12-8.4-12c-6,0-8.6,2.5-8.6,11.9v11.1l17,0V178.4z"/>
	<path class="st0" d="M634.3,127.2c0,0-2.9-20.5-11.9-29.5c-11.4-11.8-24.1-11.9-29.9-12.6c-41.8-3-104.5-3-104.5-3h-0.1
		c0,0-62.7,0-104.5,3c-5.8,0.7-18.6,0.8-29.9,12.6c-9,9-11.9,29.5-11.9,29.5s-3,24.1-3,48.1v22.6c0,24.1,3,48.1,3,48.1
		s2.9,20.5,11.9,29.5c11.4,11.8,26.3,11.5,32.9,12.7c23.9,2.3,101.5,3,101.5,3s62.7-0.1,104.5-3.1c5.8-0.7,18.6-0.8,29.9-12.6
		c9-9,11.9-29.5,11.9-29.5s3-24.1,3-48.1v-22.6C637.3,151.3,634.3,127.2,634.3,127.2z M404.3,251.3h-20v-115h-21v-19l63,0v19h-22
		V251.3z M476.3,251.3h-19v-11c-7.2,8.3-13.3,12.4-20,12.4c-5.8,0-9.9-2.8-11.9-7.7c-1.2-3-2.1-7.8-2.1-14.7v-79h19v74
		c0,4.2,0,6,0,7c0.4,2.8,1.6,3.8,4.1,3.8c3.6,0,6.9-3.2,10.9-8.8v-76h19V251.3z M545.3,221.3c0,9.2-0.8,15.8-2,20
		c-2.4,7.4-7.7,11.3-14.9,11.3c-6.4,0-13-3.9-19.1-11.4l0,10.1h-18v-134h18l0,43.7c5.8-7.2,12.5-11.3,19.1-11.3
		c7.2,0,12.1,4.2,14.5,11.6c1.2,4,2.4,10.5,2.4,20V221.3z M585,236.1c4.5,0,7.1-2.4,8.1-7.3c0.2-1,0.1-5.3,0.1-12.6h19v2.8
		c0,5.8-0.5,10-0.6,11.8c-0.6,4-2,7.6-4.2,10.8c-5,7.3-12.4,10.8-21.9,10.8c-9.5,0-16.7-3.4-21.9-10.2c-3.8-5-6.3-12.4-6.3-23.1
		v-35c0-10.7,2.2-18.9,6.1-24c5.2-6.8,12.4-10.5,21.7-10.5c9.1,0,16.3,3.6,21.4,10.5c3.8,5.1,5.9,12.9,5.9,23.5l0,20.4h-36v18
		C576.2,231.5,578.8,236.1,585,236.1z"/>
</g>
<g id="Metadata">
	<path d="M142.5,321l18.8,45.1h0.2l18.9-45.1h5.6v51.2h-4.2v-22.6l0.4-22.4l-0.2-0.1l-19,45.1H160l-19-44.9l-0.2,0l0.4,22.2v22.6
		H137V321H142.5z"/>
	<path d="M242.2,372.9c-4.8,0-8.7-1.8-11.9-5.3c-3.2-3.5-4.7-8-4.7-13.4v-1.9c0-5.4,1.6-9.9,4.7-13.5s6.9-5.4,11.4-5.4
		c4.7,0,8.3,1.5,11,4.4s4,6.9,4,11.8v3.6h-26.9v1c0,4.3,1.1,7.9,3.4,10.7c2.3,2.9,5.3,4.3,9,4.3c2.6,0,4.9-0.4,6.7-1.1
		c1.9-0.7,3.4-1.8,4.7-3.1l1.8,2.9c-1.4,1.5-3.2,2.7-5.4,3.6C247.9,372.5,245.3,372.9,242.2,372.9z M241.7,337
		c-3.1,0-5.7,1.2-7.8,3.6s-3.3,5.3-3.7,8.9l0.1,0.2h22.3v-1.1c0-3.3-1-6.1-2.9-8.3C247.7,338.2,245,337,241.7,337z"/>
	<path d="M301.4,324.4v9.7h8.4v3.4h-8.4v24.8c0,2.5,0.5,4.2,1.4,5.3c0.9,1,2.1,1.6,3.6,1.6c0.7,0,1.3,0,2-0.1
		c0.6-0.1,1.4-0.2,2.2-0.3l0.6,3.1c-0.7,0.3-1.6,0.5-2.6,0.7c-1,0.2-2,0.2-3,0.2c-2.7,0-4.8-0.8-6.2-2.5c-1.5-1.7-2.2-4.4-2.2-8
		v-24.8h-6.6v-3.4h6.6v-9.7H301.4z"/>
	<path d="M372.5,372.2c-0.3-1.3-0.5-2.4-0.6-3.3c-0.1-0.9-0.2-1.9-0.2-2.8c-1.4,2-3.3,3.6-5.6,5c-2.3,1.3-5,2-7.9,2
		c-3.7,0-6.6-1-8.6-3c-2.1-2-3.1-4.6-3.1-7.9c0-3.5,1.5-6.3,4.6-8.4c3-2.1,7.1-3.2,12.3-3.2h8.4v-4.7c0-2.7-0.9-4.9-2.6-6.4
		c-1.7-1.5-4.2-2.3-7.3-2.3c-2.9,0-5.4,0.7-7.3,2.2s-2.9,3.3-2.9,5.4l-3.9,0l-0.1-0.2c-0.1-2.8,1.2-5.4,3.9-7.6
		c2.7-2.2,6.2-3.4,10.4-3.4c4.2,0,7.6,1.1,10.1,3.2c2.6,2.1,3.8,5.2,3.8,9.2v18.7c0,1.3,0.1,2.6,0.2,3.9c0.2,1.3,0.4,2.5,0.8,3.8
		H372.5z M358.7,369.2c3,0,5.7-0.7,8-2.1s4-3.2,5-5.4v-7.9h-8.5c-3.8,0-6.9,0.8-9.2,2.4s-3.4,3.7-3.4,6.1c0,2.1,0.7,3.7,2.1,5
		C354.2,368.6,356.2,369.2,358.7,369.2z"/>
	<path d="M415.2,353.5c0-6.1,1.3-10.9,3.8-14.6s6.1-5.5,10.7-5.5c2.6,0,4.9,0.6,6.9,1.7s3.6,2.7,4.9,4.8v-22.6h4.2v54.8H442
		l-0.4-5.5c-1.3,2-2.9,3.6-4.9,4.6s-4.3,1.6-7,1.6c-4.5,0-8.1-1.7-10.7-5.1s-3.8-7.9-3.8-13.6V353.5z M419.4,354.2
		c0,4.6,0.9,8.3,2.8,11c1.8,2.7,4.6,4.1,8.3,4.1c2.7,0,5-0.6,6.8-1.8s3.2-2.9,4.2-5.1v-17.9c-1-2.2-2.3-4-4.1-5.4
		c-1.8-1.4-4.1-2.1-6.9-2.1c-3.7,0-6.5,1.5-8.3,4.6c-1.9,3-2.8,7-2.8,11.9V354.2z"/>
	<path d="M510.8,372.2c-0.3-1.3-0.5-2.4-0.6-3.3S510,367,510,366c-1.4,2-3.3,3.6-5.6,5s-5,2-7.9,2c-3.7,0-6.6-1-8.6-3
		s-3.1-4.6-3.1-7.9c0-3.5,1.5-6.3,4.6-8.4s7.1-3.2,12.3-3.2h8.4v-4.7c0-2.7-0.9-4.9-2.6-6.4s-4.2-2.3-7.3-2.3
		c-2.9,0-5.4,0.7-7.3,2.2s-2.9,3.3-2.9,5.4l-3.9,0l-0.1-0.2c-0.1-2.8,1.2-5.4,3.9-7.6s6.2-3.4,10.4-3.4c4.2,0,7.6,1.1,10.1,3.2
		c2.6,2.1,3.8,5.2,3.8,9.2v18.7c0,1.3,0.1,2.6,0.2,3.9s0.4,2.5,0.8,3.8H510.8z M496.9,369.2c3,0,5.7-0.7,8-2.1s4-3.2,5-5.4v-7.9
		h-8.5c-3.8,0-6.9,0.8-9.2,2.4s-3.4,3.7-3.4,6.1c0,2.1,0.7,3.7,2.1,5S494.4,369.2,496.9,369.2z"/>
	<path d="M561.7,324.4v9.7h8.4v3.4h-8.4v24.8c0,2.5,0.5,4.2,1.4,5.3s2.1,1.6,3.6,1.6c0.7,0,1.3,0,2-0.1s1.4-0.2,2.2-0.3l0.6,3.1
		c-0.7,0.3-1.6,0.5-2.6,0.7s-2,0.2-3,0.2c-2.7,0-4.8-0.8-6.2-2.5s-2.2-4.4-2.2-8v-24.8h-6.6v-3.4h6.6v-9.7H561.7z"/>
	<path d="M632.9,372.2c-0.3-1.3-0.5-2.4-0.6-3.3s-0.2-1.9-0.2-2.8c-1.4,2-3.3,3.6-5.6,5s-5,2-7.9,2c-3.7,0-6.6-1-8.6-3
		s-3.1-4.6-3.1-7.9c0-3.5,1.5-6.3,4.6-8.4s7.1-3.2,12.3-3.2h8.4v-4.7c0-2.7-0.9-4.9-2.6-6.4s-4.2-2.3-7.3-2.3
		c-2.9,0-5.4,0.7-7.3,2.2s-2.9,3.3-2.9,5.4l-3.9,0l-0.1-0.2c-0.1-2.8,1.2-5.4,3.9-7.6s6.2-3.4,10.4-3.4c4.2,0,7.6,1.1,10.1,3.2
		s3.8,5.2,3.8,9.2v18.7c0,1.3,0.1,2.6,0.2,3.9s0.4,2.5,0.8,3.8H632.9z M619,369.2c3,0,5.7-0.7,8-2.1s4-3.2,5-5.4v-7.9h-8.5
		c-3.8,0-6.9,0.8-9.2,2.4s-3.4,3.7-3.4,6.1c0,2.1,0.7,3.7,2.1,5S616.5,369.2,619,369.2z"/>
</g>
</svg>
